<mxfile host="Electron" modified="2024-04-27T22:23:17.176Z" agent="Mozilla/5.0 (Windows NT 10.0; Win64; x64) AppleWebKit/537.36 (KHTML, like Gecko) draw.io/24.2.5 Chrome/120.0.6099.109 Electron/28.1.0 Safari/537.36" etag="96m0ciTRubWtNRxLQoNC" version="24.2.5" type="device">
  <diagram name="Page-1" id="2YBvvXClWsGukQMizWep">
    <mxGraphModel dx="4097" dy="2389" grid="1" gridSize="10" guides="1" tooltips="1" connect="1" arrows="1" fold="1" page="1" pageScale="1" pageWidth="850" pageHeight="1100" math="0" shadow="0">
      <root>
        <mxCell id="0" />
        <mxCell id="1" parent="0" />
        <mxCell id="-eBhqyI-6Xnvktaqn6aU-1" value="Owner" style="shape=umlLifeline;perimeter=lifelinePerimeter;whiteSpace=wrap;html=1;container=1;dropTarget=0;collapsible=0;recursiveResize=0;outlineConnect=0;portConstraint=eastwest;newEdgeStyle={&quot;curved&quot;:0,&quot;rounded&quot;:0};participant=umlActor;horizontal=1;verticalAlign=middle;align=center;spacingTop=0;spacing=2;spacingBottom=60;fillColor=#f8cecc;gradientColor=#ea6b66;strokeColor=#b85450;" vertex="1" parent="1">
          <mxGeometry x="92" y="127" width="19.83" height="1460" as="geometry" />
        </mxCell>
        <mxCell id="-eBhqyI-6Xnvktaqn6aU-88" value="" style="html=1;points=[[0,0,0,0,5],[0,1,0,0,-5],[1,0,0,0,5],[1,1,0,0,-5]];perimeter=orthogonalPerimeter;outlineConnect=0;targetShapes=umlLifeline;portConstraint=eastwest;newEdgeStyle={&quot;curved&quot;:0,&quot;rounded&quot;:0};fillColor=#f8cecc;gradientColor=#ea6b66;strokeColor=#b85450;" vertex="1" parent="-eBhqyI-6Xnvktaqn6aU-1">
          <mxGeometry x="4.92" y="56" width="10" height="1404" as="geometry" />
        </mxCell>
        <mxCell id="-eBhqyI-6Xnvktaqn6aU-2" value="Owner App" style="shape=umlLifeline;perimeter=lifelinePerimeter;whiteSpace=wrap;html=1;container=1;dropTarget=0;collapsible=0;recursiveResize=0;outlineConnect=0;portConstraint=eastwest;newEdgeStyle={&quot;curved&quot;:0,&quot;rounded&quot;:0};fillColor=#f8cecc;gradientColor=#ea6b66;strokeColor=#b85450;" vertex="1" parent="1">
          <mxGeometry x="251" y="127" width="100" height="1373" as="geometry" />
        </mxCell>
        <mxCell id="-eBhqyI-6Xnvktaqn6aU-3" value="Database" style="shape=umlLifeline;perimeter=lifelinePerimeter;whiteSpace=wrap;html=1;container=1;dropTarget=0;collapsible=0;recursiveResize=0;outlineConnect=0;portConstraint=eastwest;newEdgeStyle={&quot;curved&quot;:0,&quot;rounded&quot;:0};fillColor=#f8cecc;gradientColor=#ea6b66;strokeColor=#b85450;" vertex="1" parent="1">
          <mxGeometry x="475" y="125" width="100" height="1465" as="geometry" />
        </mxCell>
        <mxCell id="-eBhqyI-6Xnvktaqn6aU-4" value="" style="endArrow=block;endFill=1;html=1;edgeStyle=orthogonalEdgeStyle;align=left;verticalAlign=top;rounded=0;fontFamily=comfortaa;" edge="1" parent="1">
          <mxGeometry x="-1" relative="1" as="geometry">
            <mxPoint x="120" y="206" as="sourcePoint" />
            <mxPoint x="280" y="206" as="targetPoint" />
          </mxGeometry>
        </mxCell>
        <mxCell id="-eBhqyI-6Xnvktaqn6aU-5" value="Επιλογή συγκεκριμένου&lt;span style=&quot;white-space: pre;&quot;&gt;&#x9;&lt;/span&gt;" style="edgeLabel;html=1;align=center;verticalAlign=middle;resizable=0;points=[];fontFamily=comfortaa;" connectable="0" vertex="1" parent="-eBhqyI-6Xnvktaqn6aU-4">
          <mxGeometry x="0.0435" y="1" relative="1" as="geometry">
            <mxPoint x="-13" y="-7" as="offset" />
          </mxGeometry>
        </mxCell>
        <mxCell id="-eBhqyI-6Xnvktaqn6aU-6" value="establishment" style="edgeLabel;html=1;align=center;verticalAlign=middle;resizable=0;points=[];fontFamily=comfortaa;" connectable="0" vertex="1" parent="-eBhqyI-6Xnvktaqn6aU-4">
          <mxGeometry x="0.0608" y="-3" relative="1" as="geometry">
            <mxPoint x="-25" y="4" as="offset" />
          </mxGeometry>
        </mxCell>
        <mxCell id="-eBhqyI-6Xnvktaqn6aU-7" value="" style="endArrow=block;endFill=1;html=1;edgeStyle=orthogonalEdgeStyle;align=left;verticalAlign=top;rounded=0;fontFamily=comfortaa;" edge="1" parent="1">
          <mxGeometry x="-1" relative="1" as="geometry">
            <mxPoint x="334" y="224" as="sourcePoint" />
            <mxPoint x="494" y="224" as="targetPoint" />
          </mxGeometry>
        </mxCell>
        <mxCell id="-eBhqyI-6Xnvktaqn6aU-8" value="Αναζήτηση στη βάση δεδομένων" style="edgeLabel;html=1;align=center;verticalAlign=middle;resizable=0;points=[];fontFamily=comfortaa;" connectable="0" vertex="1" parent="-eBhqyI-6Xnvktaqn6aU-7">
          <mxGeometry x="-0.1875" y="2" relative="1" as="geometry">
            <mxPoint x="9" y="-12" as="offset" />
          </mxGeometry>
        </mxCell>
        <mxCell id="-eBhqyI-6Xnvktaqn6aU-9" value="για παραγγελίες" style="edgeLabel;html=1;align=center;verticalAlign=middle;resizable=0;points=[];fontFamily=comfortaa;labelBackgroundColor=none;" connectable="0" vertex="1" parent="-eBhqyI-6Xnvktaqn6aU-7">
          <mxGeometry x="0.0366" relative="1" as="geometry">
            <mxPoint x="-8" y="9" as="offset" />
          </mxGeometry>
        </mxCell>
        <mxCell id="-eBhqyI-6Xnvktaqn6aU-10" value="" style="endArrow=block;endFill=1;html=1;edgeStyle=orthogonalEdgeStyle;align=left;verticalAlign=top;rounded=0;fontFamily=comfortaa;" edge="1" parent="1">
          <mxGeometry x="-1" relative="1" as="geometry">
            <mxPoint x="121" y="352" as="sourcePoint" />
            <mxPoint x="281" y="352" as="targetPoint" />
          </mxGeometry>
        </mxCell>
        <mxCell id="-eBhqyI-6Xnvktaqn6aU-11" value="Επιλογή κάποιας παραγγελίας" style="edgeLabel;html=1;align=center;verticalAlign=middle;resizable=0;points=[];fontFamily=comfortaa;labelBackgroundColor=none;" connectable="0" vertex="1" parent="-eBhqyI-6Xnvktaqn6aU-10">
          <mxGeometry x="0.1293" y="1" relative="1" as="geometry">
            <mxPoint x="-8" y="-8" as="offset" />
          </mxGeometry>
        </mxCell>
        <mxCell id="-eBhqyI-6Xnvktaqn6aU-13" value="" style="endArrow=block;endFill=1;html=1;edgeStyle=orthogonalEdgeStyle;align=left;verticalAlign=top;rounded=0;fontFamily=comfortaa;" edge="1" parent="1">
          <mxGeometry x="-1" relative="1" as="geometry">
            <mxPoint x="119" y="861" as="sourcePoint" />
            <mxPoint x="279" y="861" as="targetPoint" />
          </mxGeometry>
        </mxCell>
        <mxCell id="-eBhqyI-6Xnvktaqn6aU-14" value="Επιλογή επιβεβαίωση" style="edgeLabel;html=1;align=center;verticalAlign=middle;resizable=0;points=[];fontFamily=comfortaa;labelBackgroundColor=none;" connectable="0" vertex="1" parent="-eBhqyI-6Xnvktaqn6aU-13">
          <mxGeometry x="0.2625" y="2" relative="1" as="geometry">
            <mxPoint x="-20" y="-6" as="offset" />
          </mxGeometry>
        </mxCell>
        <mxCell id="-eBhqyI-6Xnvktaqn6aU-16" value="" style="endArrow=block;endFill=1;html=1;edgeStyle=orthogonalEdgeStyle;align=left;verticalAlign=top;rounded=0;fontFamily=comfortaa;" edge="1" parent="1">
          <mxGeometry x="-1" relative="1" as="geometry">
            <mxPoint x="327" y="378" as="sourcePoint" />
            <mxPoint x="487" y="378" as="targetPoint" />
          </mxGeometry>
        </mxCell>
        <mxCell id="-eBhqyI-6Xnvktaqn6aU-17" value="Αίτημα για φόρτωση της" style="edgeLabel;html=1;align=center;verticalAlign=middle;resizable=0;points=[];fontFamily=comfortaa;" connectable="0" vertex="1" parent="-eBhqyI-6Xnvktaqn6aU-16">
          <mxGeometry x="0.3" y="-1" relative="1" as="geometry">
            <mxPoint x="-27" y="-9" as="offset" />
          </mxGeometry>
        </mxCell>
        <mxCell id="-eBhqyI-6Xnvktaqn6aU-18" value="παραγγελίας" style="edgeLabel;html=1;align=center;verticalAlign=middle;resizable=0;points=[];fontFamily=comfortaa;" connectable="0" vertex="1" parent="-eBhqyI-6Xnvktaqn6aU-16">
          <mxGeometry x="0.231" y="-3" relative="1" as="geometry">
            <mxPoint x="-19" y="5" as="offset" />
          </mxGeometry>
        </mxCell>
        <mxCell id="-eBhqyI-6Xnvktaqn6aU-19" value="" style="endArrow=none;endFill=0;html=1;edgeStyle=orthogonalEdgeStyle;align=left;verticalAlign=top;rounded=0;startArrow=classic;startFill=1;dashed=1;fontFamily=comfortaa;" edge="1" parent="1">
          <mxGeometry x="-1" relative="1" as="geometry">
            <mxPoint x="318" y="276" as="sourcePoint" />
            <mxPoint x="478" y="276" as="targetPoint" />
          </mxGeometry>
        </mxCell>
        <mxCell id="-eBhqyI-6Xnvktaqn6aU-20" value="Επιστροφή σχετικών αποτελεσμάτων" style="edgeLabel;html=1;align=center;verticalAlign=middle;resizable=0;points=[];fontFamily=comfortaa;" connectable="0" vertex="1" parent="-eBhqyI-6Xnvktaqn6aU-19">
          <mxGeometry x="-0.3237" y="2" relative="1" as="geometry">
            <mxPoint x="41" y="-14" as="offset" />
          </mxGeometry>
        </mxCell>
        <mxCell id="-eBhqyI-6Xnvktaqn6aU-21" value="" style="endArrow=none;endFill=0;html=1;edgeStyle=orthogonalEdgeStyle;align=left;verticalAlign=top;rounded=0;startArrow=classic;startFill=1;fontFamily=comfortaa;" edge="1" parent="1">
          <mxGeometry x="-1" relative="1" as="geometry">
            <mxPoint x="118" y="466" as="sourcePoint" />
            <mxPoint x="278" y="466" as="targetPoint" />
          </mxGeometry>
        </mxCell>
        <mxCell id="-eBhqyI-6Xnvktaqn6aU-22" value="&lt;font&gt;Εμφάνιση αναλυτικής παραγγελίας&lt;/font&gt;" style="edgeLabel;html=1;align=center;verticalAlign=middle;resizable=0;points=[];fontFamily=comfortaa;labelBackgroundColor=none;" connectable="0" vertex="1" parent="-eBhqyI-6Xnvktaqn6aU-21">
          <mxGeometry x="-0.1325" relative="1" as="geometry">
            <mxPoint x="16" y="-10" as="offset" />
          </mxGeometry>
        </mxCell>
        <mxCell id="-eBhqyI-6Xnvktaqn6aU-23" value="&lt;font&gt;στον owner&lt;/font&gt;" style="edgeLabel;html=1;align=center;verticalAlign=middle;resizable=0;points=[];fontFamily=comfortaa;" connectable="0" vertex="1" parent="-eBhqyI-6Xnvktaqn6aU-21">
          <mxGeometry x="0.2525" y="-1" relative="1" as="geometry">
            <mxPoint x="-16" y="6" as="offset" />
          </mxGeometry>
        </mxCell>
        <mxCell id="-eBhqyI-6Xnvktaqn6aU-24" value="" style="endArrow=none;endFill=0;html=1;edgeStyle=orthogonalEdgeStyle;align=left;verticalAlign=top;rounded=0;startArrow=classic;startFill=1;fontFamily=comfortaa;dashed=1;" edge="1" parent="1">
          <mxGeometry x="-1" relative="1" as="geometry">
            <mxPoint x="332" y="432" as="sourcePoint" />
            <mxPoint x="492" y="432" as="targetPoint" />
          </mxGeometry>
        </mxCell>
        <mxCell id="-eBhqyI-6Xnvktaqn6aU-25" value="Επιστροφή πληροφοριών&amp;nbsp;" style="edgeLabel;html=1;align=center;verticalAlign=middle;resizable=0;points=[];fontFamily=comfortaa;" connectable="0" vertex="1" parent="-eBhqyI-6Xnvktaqn6aU-24">
          <mxGeometry x="-0.1246" relative="1" as="geometry">
            <mxPoint x="23" y="-12" as="offset" />
          </mxGeometry>
        </mxCell>
        <mxCell id="-eBhqyI-6Xnvktaqn6aU-26" value="συγκεκριμένης παραγγελίας" style="edgeLabel;html=1;align=center;verticalAlign=middle;resizable=0;points=[];fontFamily=comfortaa;" connectable="0" vertex="1" parent="-eBhqyI-6Xnvktaqn6aU-24">
          <mxGeometry x="0.4185" y="-2" relative="1" as="geometry">
            <mxPoint x="-21" y="5" as="offset" />
          </mxGeometry>
        </mxCell>
        <mxCell id="-eBhqyI-6Xnvktaqn6aU-27" value="" style="endArrow=none;endFill=0;html=1;edgeStyle=orthogonalEdgeStyle;align=left;verticalAlign=top;rounded=0;startArrow=classic;startFill=1;fontFamily=comfortaa;" edge="1" parent="1">
          <mxGeometry x="-1" relative="1" as="geometry">
            <mxPoint x="121" y="301" as="sourcePoint" />
            <mxPoint x="281" y="301" as="targetPoint" />
          </mxGeometry>
        </mxCell>
        <mxCell id="-eBhqyI-6Xnvktaqn6aU-29" value="στον owner" style="edgeLabel;html=1;align=center;verticalAlign=middle;resizable=0;points=[];fontFamily=comfortaa;" connectable="0" vertex="1" parent="-eBhqyI-6Xnvktaqn6aU-27">
          <mxGeometry x="0.0086" y="2" relative="1" as="geometry">
            <mxPoint x="-1" y="9" as="offset" />
          </mxGeometry>
        </mxCell>
        <mxCell id="-eBhqyI-6Xnvktaqn6aU-28" value="Εμφάνιση σχετικών αποτελεσμάτων" style="edgeLabel;html=1;align=center;verticalAlign=middle;resizable=0;points=[];fontFamily=comfortaa;" connectable="0" vertex="1" parent="-eBhqyI-6Xnvktaqn6aU-27">
          <mxGeometry x="0.2586" y="1" relative="1" as="geometry">
            <mxPoint x="-17" y="-11" as="offset" />
          </mxGeometry>
        </mxCell>
        <mxCell id="-eBhqyI-6Xnvktaqn6aU-30" value="&lt;font style=&quot;font-size: 10px;&quot;&gt;Βασική ροή&lt;/font&gt;" style="shape=umlFrame;whiteSpace=wrap;html=1;pointerEvents=0;fillColor=#f8cecc;gradientColor=#ea6b66;strokeColor=#b85450;" vertex="1" parent="1">
          <mxGeometry x="24" y="183" width="574" height="657" as="geometry" />
        </mxCell>
        <mxCell id="-eBhqyI-6Xnvktaqn6aU-31" value="&lt;font style=&quot;font-size: 9px;&quot;&gt;Εναλλακτική ροή 1&lt;/font&gt;" style="shape=umlFrame;whiteSpace=wrap;html=1;pointerEvents=0;fontFamily=Helvetica;fontSize=12;strokeColor=#b85450;align=center;verticalAlign=middle;fontColor=default;fillColor=#f8cecc;gradientColor=#ea6b66;" vertex="1" parent="1">
          <mxGeometry x="24" y="840" width="574" height="290" as="geometry" />
        </mxCell>
        <mxCell id="-eBhqyI-6Xnvktaqn6aU-32" value="&lt;p style=&quot;line-height: 100%;&quot;&gt;&lt;font style=&quot;&quot;&gt;&lt;font style=&quot;font-size: 9px;&quot;&gt;Εναλλακτική ροή 2&lt;/font&gt;&lt;br&gt;&lt;/font&gt;&lt;/p&gt;" style="shape=umlFrame;whiteSpace=wrap;html=1;pointerEvents=0;fontFamily=Helvetica;strokeColor=#b85450;align=center;verticalAlign=middle;fontSize=12;fontColor=default;fillColor=#f8cecc;gradientColor=#ea6b66;" vertex="1" parent="1">
          <mxGeometry x="24" y="1130" width="574" height="257" as="geometry" />
        </mxCell>
        <mxCell id="-eBhqyI-6Xnvktaqn6aU-66" value="&lt;p style=&quot;line-height: 100%;&quot;&gt;&lt;font style=&quot;&quot;&gt;&lt;font style=&quot;font-size: 9px;&quot;&gt;Εναλλακτική ροή 3&lt;/font&gt;&lt;br&gt;&lt;/font&gt;&lt;/p&gt;" style="shape=umlFrame;whiteSpace=wrap;html=1;pointerEvents=0;fontFamily=Helvetica;strokeColor=#b85450;align=center;verticalAlign=middle;fontSize=12;fontColor=default;fillColor=#f8cecc;gradientColor=#ea6b66;" vertex="1" parent="1">
          <mxGeometry x="24" y="1387" width="574" height="203" as="geometry" />
        </mxCell>
        <mxCell id="-eBhqyI-6Xnvktaqn6aU-74" value="" style="endArrow=block;endFill=1;html=1;edgeStyle=orthogonalEdgeStyle;align=left;verticalAlign=top;rounded=0;fontFamily=comfortaa;" edge="1" parent="1">
          <mxGeometry x="-1" relative="1" as="geometry">
            <mxPoint x="121" y="530" as="sourcePoint" />
            <mxPoint x="281" y="530" as="targetPoint" />
          </mxGeometry>
        </mxCell>
        <mxCell id="-eBhqyI-6Xnvktaqn6aU-75" value="Αποθεματικός έλεγχος" style="edgeLabel;html=1;align=center;verticalAlign=middle;resizable=0;points=[];fontFamily=comfortaa;labelBackgroundColor=none;" connectable="0" vertex="1" parent="-eBhqyI-6Xnvktaqn6aU-74">
          <mxGeometry x="0.1293" y="1" relative="1" as="geometry">
            <mxPoint x="-8" y="-8" as="offset" />
          </mxGeometry>
        </mxCell>
        <mxCell id="-eBhqyI-6Xnvktaqn6aU-76" value="" style="endArrow=block;endFill=1;html=1;edgeStyle=orthogonalEdgeStyle;align=left;verticalAlign=top;rounded=0;fontFamily=comfortaa;" edge="1" parent="1">
          <mxGeometry x="-1" relative="1" as="geometry">
            <mxPoint x="327" y="560" as="sourcePoint" />
            <mxPoint x="487" y="560" as="targetPoint" />
          </mxGeometry>
        </mxCell>
        <mxCell id="-eBhqyI-6Xnvktaqn6aU-77" value="Αίτημα για ελεγχο" style="edgeLabel;html=1;align=center;verticalAlign=middle;resizable=0;points=[];fontFamily=comfortaa;" connectable="0" vertex="1" parent="-eBhqyI-6Xnvktaqn6aU-76">
          <mxGeometry x="0.3" y="-1" relative="1" as="geometry">
            <mxPoint x="-27" y="-9" as="offset" />
          </mxGeometry>
        </mxCell>
        <mxCell id="-eBhqyI-6Xnvktaqn6aU-78" value="των αποθεματων" style="edgeLabel;html=1;align=center;verticalAlign=middle;resizable=0;points=[];fontFamily=comfortaa;" connectable="0" vertex="1" parent="-eBhqyI-6Xnvktaqn6aU-76">
          <mxGeometry x="0.231" y="-3" relative="1" as="geometry">
            <mxPoint x="-19" y="5" as="offset" />
          </mxGeometry>
        </mxCell>
        <mxCell id="-eBhqyI-6Xnvktaqn6aU-79" value="" style="endArrow=none;endFill=0;html=1;edgeStyle=orthogonalEdgeStyle;align=left;verticalAlign=top;rounded=0;startArrow=classic;startFill=1;fontFamily=comfortaa;dashed=1;" edge="1" parent="1">
          <mxGeometry x="-1" relative="1" as="geometry">
            <mxPoint x="330" y="610" as="sourcePoint" />
            <mxPoint x="490" y="610" as="targetPoint" />
          </mxGeometry>
        </mxCell>
        <mxCell id="-eBhqyI-6Xnvktaqn6aU-80" value="Επιστροφή πληροφοριών&amp;nbsp;" style="edgeLabel;html=1;align=center;verticalAlign=middle;resizable=0;points=[];fontFamily=comfortaa;" connectable="0" vertex="1" parent="-eBhqyI-6Xnvktaqn6aU-79">
          <mxGeometry x="-0.1246" relative="1" as="geometry">
            <mxPoint x="23" y="-12" as="offset" />
          </mxGeometry>
        </mxCell>
        <mxCell id="-eBhqyI-6Xnvktaqn6aU-81" value="για το απόθεμα" style="edgeLabel;html=1;align=center;verticalAlign=middle;resizable=0;points=[];fontFamily=comfortaa;" connectable="0" vertex="1" parent="-eBhqyI-6Xnvktaqn6aU-79">
          <mxGeometry x="0.4185" y="-2" relative="1" as="geometry">
            <mxPoint x="-21" y="5" as="offset" />
          </mxGeometry>
        </mxCell>
        <mxCell id="-eBhqyI-6Xnvktaqn6aU-83" value="" style="endArrow=none;endFill=0;html=1;edgeStyle=orthogonalEdgeStyle;align=left;verticalAlign=top;rounded=0;startArrow=classic;startFill=1;fontFamily=comfortaa;" edge="1" parent="1">
          <mxGeometry x="-1" relative="1" as="geometry">
            <mxPoint x="120" y="640" as="sourcePoint" />
            <mxPoint x="280" y="640" as="targetPoint" />
          </mxGeometry>
        </mxCell>
        <mxCell id="-eBhqyI-6Xnvktaqn6aU-84" value="&lt;font&gt;Εμφάνιση συνολικού αποθέματος&lt;/font&gt;" style="edgeLabel;html=1;align=center;verticalAlign=middle;resizable=0;points=[];fontFamily=comfortaa;labelBackgroundColor=none;" connectable="0" vertex="1" parent="-eBhqyI-6Xnvktaqn6aU-83">
          <mxGeometry x="-0.1325" relative="1" as="geometry">
            <mxPoint x="16" y="-10" as="offset" />
          </mxGeometry>
        </mxCell>
        <mxCell id="-eBhqyI-6Xnvktaqn6aU-85" value="&lt;font&gt;της παραγγελίας στον owner&lt;/font&gt;" style="edgeLabel;html=1;align=center;verticalAlign=middle;resizable=0;points=[];fontFamily=comfortaa;labelBackgroundColor=none;" connectable="0" vertex="1" parent="-eBhqyI-6Xnvktaqn6aU-83">
          <mxGeometry x="0.2525" y="-1" relative="1" as="geometry">
            <mxPoint x="-16" y="6" as="offset" />
          </mxGeometry>
        </mxCell>
        <mxCell id="-eBhqyI-6Xnvktaqn6aU-86" value="" style="html=1;points=[[0,0,0,0,5],[0,1,0,0,-5],[1,0,0,0,5],[1,1,0,0,-5]];perimeter=orthogonalPerimeter;outlineConnect=0;targetShapes=umlLifeline;portConstraint=eastwest;newEdgeStyle={&quot;curved&quot;:0,&quot;rounded&quot;:0};fillColor=#f8cecc;gradientColor=#ea6b66;strokeColor=#b85450;" vertex="1" parent="1">
          <mxGeometry x="520" y="183" width="10" height="457" as="geometry" />
        </mxCell>
        <mxCell id="-eBhqyI-6Xnvktaqn6aU-87" value="" style="html=1;points=[[0,0,0,0,5],[0,1,0,0,-5],[1,0,0,0,5],[1,1,0,0,-5]];perimeter=orthogonalPerimeter;outlineConnect=0;targetShapes=umlLifeline;portConstraint=eastwest;newEdgeStyle={&quot;curved&quot;:0,&quot;rounded&quot;:0};fillColor=#f8cecc;gradientColor=#ea6b66;strokeColor=#b85450;" vertex="1" parent="1">
          <mxGeometry x="296" y="183" width="10" height="1407" as="geometry" />
        </mxCell>
        <mxCell id="-eBhqyI-6Xnvktaqn6aU-90" value="" style="endArrow=block;endFill=1;html=1;edgeStyle=orthogonalEdgeStyle;align=left;verticalAlign=top;rounded=0;fontFamily=comfortaa;" edge="1" parent="1">
          <mxGeometry x="-1" relative="1" as="geometry">
            <mxPoint x="120" y="730" as="sourcePoint" />
            <mxPoint x="280" y="730" as="targetPoint" />
          </mxGeometry>
        </mxCell>
        <mxCell id="-eBhqyI-6Xnvktaqn6aU-91" value="κλικ επιβεβαιωσης" style="edgeLabel;html=1;align=center;verticalAlign=middle;resizable=0;points=[];fontFamily=comfortaa;labelBackgroundColor=none;" connectable="0" vertex="1" parent="-eBhqyI-6Xnvktaqn6aU-90">
          <mxGeometry x="0.2625" y="2" relative="1" as="geometry">
            <mxPoint x="-20" y="-6" as="offset" />
          </mxGeometry>
        </mxCell>
        <mxCell id="-eBhqyI-6Xnvktaqn6aU-92" value="" style="endArrow=block;endFill=1;html=1;edgeStyle=orthogonalEdgeStyle;align=left;verticalAlign=top;rounded=0;fontFamily=comfortaa;" edge="1" parent="1">
          <mxGeometry x="-1" relative="1" as="geometry">
            <mxPoint x="270" y="781" as="sourcePoint" />
            <mxPoint x="130" y="781" as="targetPoint" />
          </mxGeometry>
        </mxCell>
        <mxCell id="-eBhqyI-6Xnvktaqn6aU-93" value="μήνυμα επιβεβαίωσης" style="edgeLabel;html=1;align=center;verticalAlign=middle;resizable=0;points=[];fontFamily=comfortaa;labelBackgroundColor=none;" connectable="0" vertex="1" parent="-eBhqyI-6Xnvktaqn6aU-92">
          <mxGeometry x="0.2625" y="2" relative="1" as="geometry">
            <mxPoint x="12" y="-13" as="offset" />
          </mxGeometry>
        </mxCell>
        <mxCell id="-eBhqyI-6Xnvktaqn6aU-95" value="&lt;font&gt;Εμφάνιση συνολικού αποθέματος&lt;/font&gt;" style="edgeLabel;html=1;align=center;verticalAlign=middle;resizable=0;points=[];fontFamily=comfortaa;labelBackgroundColor=none;" connectable="0" vertex="1" parent="1">
          <mxGeometry x="205.81517241379325" y="960.0000000000001" as="geometry" />
        </mxCell>
        <mxCell id="-eBhqyI-6Xnvktaqn6aU-96" value="&lt;font&gt;της παραγγελίας στον owner&lt;/font&gt;" style="edgeLabel;html=1;align=center;verticalAlign=middle;resizable=0;points=[];fontFamily=comfortaa;labelBackgroundColor=none;" connectable="0" vertex="1" parent="1">
          <mxGeometry x="204.16" y="977.0000000000001" as="geometry" />
        </mxCell>
        <mxCell id="-eBhqyI-6Xnvktaqn6aU-97" value="" style="endArrow=block;endFill=1;html=1;edgeStyle=orthogonalEdgeStyle;align=left;verticalAlign=top;rounded=0;fontFamily=comfortaa;" edge="1" parent="1">
          <mxGeometry x="-1" relative="1" as="geometry">
            <mxPoint x="120" y="1030" as="sourcePoint" />
            <mxPoint x="280" y="1030" as="targetPoint" />
          </mxGeometry>
        </mxCell>
        <mxCell id="-eBhqyI-6Xnvktaqn6aU-98" value="κλικ επιβεβαιωσης" style="edgeLabel;html=1;align=center;verticalAlign=middle;resizable=0;points=[];fontFamily=comfortaa;labelBackgroundColor=none;" connectable="0" vertex="1" parent="-eBhqyI-6Xnvktaqn6aU-97">
          <mxGeometry x="0.2625" y="2" relative="1" as="geometry">
            <mxPoint x="-20" y="-6" as="offset" />
          </mxGeometry>
        </mxCell>
        <mxCell id="-eBhqyI-6Xnvktaqn6aU-99" value="" style="endArrow=block;endFill=1;html=1;edgeStyle=orthogonalEdgeStyle;align=left;verticalAlign=top;rounded=0;fontFamily=comfortaa;" edge="1" parent="1">
          <mxGeometry x="-1" relative="1" as="geometry">
            <mxPoint x="281.07" y="1070" as="sourcePoint" />
            <mxPoint x="118" y="1070" as="targetPoint" />
          </mxGeometry>
        </mxCell>
        <mxCell id="-eBhqyI-6Xnvktaqn6aU-100" value="μήνυμα επιβεβαίωσης" style="edgeLabel;html=1;align=center;verticalAlign=middle;resizable=0;points=[];fontFamily=comfortaa;labelBackgroundColor=none;" connectable="0" vertex="1" parent="-eBhqyI-6Xnvktaqn6aU-99">
          <mxGeometry x="0.2625" y="2" relative="1" as="geometry">
            <mxPoint x="12" y="-12" as="offset" />
          </mxGeometry>
        </mxCell>
        <mxCell id="-eBhqyI-6Xnvktaqn6aU-102" value="" style="endArrow=none;endFill=0;html=1;edgeStyle=orthogonalEdgeStyle;align=left;verticalAlign=top;rounded=0;startArrow=classic;startFill=1;fontFamily=comfortaa;" edge="1" parent="1">
          <mxGeometry x="-1" relative="1" as="geometry">
            <mxPoint x="120" y="970.84" as="sourcePoint" />
            <mxPoint x="280" y="970.84" as="targetPoint" />
          </mxGeometry>
        </mxCell>
        <mxCell id="-eBhqyI-6Xnvktaqn6aU-105" value="" style="endArrow=block;endFill=1;html=1;edgeStyle=orthogonalEdgeStyle;align=left;verticalAlign=top;rounded=0;fontFamily=comfortaa;" edge="1" parent="1">
          <mxGeometry x="-1" relative="1" as="geometry">
            <mxPoint x="123.16" y="1150" as="sourcePoint" />
            <mxPoint x="283.16" y="1150" as="targetPoint" />
          </mxGeometry>
        </mxCell>
        <mxCell id="-eBhqyI-6Xnvktaqn6aU-106" value="Επιλογή ακύρωση" style="edgeLabel;html=1;align=center;verticalAlign=middle;resizable=0;points=[];fontFamily=comfortaa;labelBackgroundColor=none;" connectable="0" vertex="1" parent="-eBhqyI-6Xnvktaqn6aU-105">
          <mxGeometry x="0.2625" y="2" relative="1" as="geometry">
            <mxPoint x="-20" y="-6" as="offset" />
          </mxGeometry>
        </mxCell>
        <mxCell id="-eBhqyI-6Xnvktaqn6aU-109" value="" style="endArrow=block;endFill=1;html=1;edgeStyle=orthogonalEdgeStyle;align=left;verticalAlign=top;rounded=0;fontFamily=comfortaa;" edge="1" parent="1">
          <mxGeometry x="-1" relative="1" as="geometry">
            <mxPoint x="124.16" y="1298.16" as="sourcePoint" />
            <mxPoint x="284.16" y="1298.16" as="targetPoint" />
          </mxGeometry>
        </mxCell>
        <mxCell id="-eBhqyI-6Xnvktaqn6aU-110" value="κλικ επιβεβαιωσης" style="edgeLabel;html=1;align=center;verticalAlign=middle;resizable=0;points=[];fontFamily=comfortaa;labelBackgroundColor=none;" connectable="0" vertex="1" parent="-eBhqyI-6Xnvktaqn6aU-109">
          <mxGeometry x="0.2625" y="2" relative="1" as="geometry">
            <mxPoint x="-20" y="-6" as="offset" />
          </mxGeometry>
        </mxCell>
        <mxCell id="-eBhqyI-6Xnvktaqn6aU-111" value="" style="endArrow=block;endFill=1;html=1;edgeStyle=orthogonalEdgeStyle;align=left;verticalAlign=top;rounded=0;fontFamily=comfortaa;" edge="1" parent="1">
          <mxGeometry x="-1" relative="1" as="geometry">
            <mxPoint x="274.16" y="1349.16" as="sourcePoint" />
            <mxPoint x="134.16" y="1349.16" as="targetPoint" />
          </mxGeometry>
        </mxCell>
        <mxCell id="-eBhqyI-6Xnvktaqn6aU-112" value="μήνυμα επιβεβαίωσης" style="edgeLabel;html=1;align=center;verticalAlign=middle;resizable=0;points=[];fontFamily=comfortaa;labelBackgroundColor=none;" connectable="0" vertex="1" parent="-eBhqyI-6Xnvktaqn6aU-111">
          <mxGeometry x="0.2625" y="2" relative="1" as="geometry">
            <mxPoint x="12" y="-13" as="offset" />
          </mxGeometry>
        </mxCell>
        <mxCell id="-eBhqyI-6Xnvktaqn6aU-116" value="ακύρωσης" style="edgeLabel;html=1;align=center;verticalAlign=middle;resizable=0;points=[];fontFamily=comfortaa;labelBackgroundColor=none;" connectable="0" vertex="1" parent="-eBhqyI-6Xnvktaqn6aU-111">
          <mxGeometry x="0.2625" y="2" relative="1" as="geometry">
            <mxPoint x="12" y="9" as="offset" />
          </mxGeometry>
        </mxCell>
        <mxCell id="-eBhqyI-6Xnvktaqn6aU-113" value="" style="endArrow=none;endFill=0;html=1;edgeStyle=orthogonalEdgeStyle;align=left;verticalAlign=top;rounded=0;startArrow=classic;startFill=1;fontFamily=comfortaa;" edge="1" parent="1">
          <mxGeometry x="-1" relative="1" as="geometry">
            <mxPoint x="125.82" y="1249" as="sourcePoint" />
            <mxPoint x="285.82000000000005" y="1249" as="targetPoint" />
          </mxGeometry>
        </mxCell>
        <mxCell id="-eBhqyI-6Xnvktaqn6aU-114" value="&lt;font&gt;της παραγγελίας στον owner&lt;/font&gt;" style="edgeLabel;html=1;align=center;verticalAlign=middle;resizable=0;points=[];fontFamily=comfortaa;labelBackgroundColor=none;" connectable="0" vertex="1" parent="1">
          <mxGeometry x="205.82" y="1260" as="geometry" />
        </mxCell>
        <mxCell id="-eBhqyI-6Xnvktaqn6aU-115" value="&lt;font&gt;Εμφάνιση μη επαρκούς αποθέματος&lt;/font&gt;" style="edgeLabel;html=1;align=center;verticalAlign=middle;resizable=0;points=[];fontFamily=comfortaa;labelBackgroundColor=none;" connectable="0" vertex="1" parent="1">
          <mxGeometry x="207.47517241379325" y="1240" as="geometry" />
        </mxCell>
        <mxCell id="-eBhqyI-6Xnvktaqn6aU-117" value="" style="endArrow=block;endFill=1;html=1;edgeStyle=orthogonalEdgeStyle;align=left;verticalAlign=top;rounded=0;fontFamily=comfortaa;" edge="1" parent="1">
          <mxGeometry x="-1" relative="1" as="geometry">
            <mxPoint x="320" y="881.8199999999999" as="sourcePoint" />
            <mxPoint x="480" y="881.8199999999999" as="targetPoint" />
          </mxGeometry>
        </mxCell>
        <mxCell id="-eBhqyI-6Xnvktaqn6aU-118" value="Αίτημα για φόρτωση της" style="edgeLabel;html=1;align=center;verticalAlign=middle;resizable=0;points=[];fontFamily=comfortaa;" connectable="0" vertex="1" parent="-eBhqyI-6Xnvktaqn6aU-117">
          <mxGeometry x="0.3" y="-1" relative="1" as="geometry">
            <mxPoint x="-27" y="-9" as="offset" />
          </mxGeometry>
        </mxCell>
        <mxCell id="-eBhqyI-6Xnvktaqn6aU-119" value="παραγγελίας" style="edgeLabel;html=1;align=center;verticalAlign=middle;resizable=0;points=[];fontFamily=comfortaa;" connectable="0" vertex="1" parent="-eBhqyI-6Xnvktaqn6aU-117">
          <mxGeometry x="0.231" y="-3" relative="1" as="geometry">
            <mxPoint x="-19" y="5" as="offset" />
          </mxGeometry>
        </mxCell>
        <mxCell id="-eBhqyI-6Xnvktaqn6aU-120" value="" style="endArrow=none;endFill=0;html=1;edgeStyle=orthogonalEdgeStyle;align=left;verticalAlign=top;rounded=0;startArrow=classic;startFill=1;fontFamily=comfortaa;dashed=1;" edge="1" parent="1">
          <mxGeometry x="-1" relative="1" as="geometry">
            <mxPoint x="325" y="935.8199999999999" as="sourcePoint" />
            <mxPoint x="485" y="935.8199999999999" as="targetPoint" />
          </mxGeometry>
        </mxCell>
        <mxCell id="-eBhqyI-6Xnvktaqn6aU-121" value="Επιστροφή πληροφοριών&amp;nbsp;" style="edgeLabel;html=1;align=center;verticalAlign=middle;resizable=0;points=[];fontFamily=comfortaa;" connectable="0" vertex="1" parent="-eBhqyI-6Xnvktaqn6aU-120">
          <mxGeometry x="-0.1246" relative="1" as="geometry">
            <mxPoint x="23" y="-12" as="offset" />
          </mxGeometry>
        </mxCell>
        <mxCell id="-eBhqyI-6Xnvktaqn6aU-122" value="συγκεκριμένης παραγγελίας" style="edgeLabel;html=1;align=center;verticalAlign=middle;resizable=0;points=[];fontFamily=comfortaa;" connectable="0" vertex="1" parent="-eBhqyI-6Xnvktaqn6aU-120">
          <mxGeometry x="0.4185" y="-2" relative="1" as="geometry">
            <mxPoint x="-21" y="5" as="offset" />
          </mxGeometry>
        </mxCell>
        <mxCell id="-eBhqyI-6Xnvktaqn6aU-132" value="" style="endArrow=none;endFill=0;html=1;edgeStyle=orthogonalEdgeStyle;align=left;verticalAlign=top;rounded=0;startArrow=classic;startFill=1;fontFamily=comfortaa;dashed=1;" edge="1" parent="1">
          <mxGeometry x="-1" relative="1" as="geometry">
            <mxPoint x="335" y="1224" as="sourcePoint" />
            <mxPoint x="495" y="1224" as="targetPoint" />
          </mxGeometry>
        </mxCell>
        <mxCell id="-eBhqyI-6Xnvktaqn6aU-133" value="Επιστροφή πληροφοριών&amp;nbsp;" style="edgeLabel;html=1;align=center;verticalAlign=middle;resizable=0;points=[];fontFamily=comfortaa;" connectable="0" vertex="1" parent="-eBhqyI-6Xnvktaqn6aU-132">
          <mxGeometry x="-0.1246" relative="1" as="geometry">
            <mxPoint x="23" y="-12" as="offset" />
          </mxGeometry>
        </mxCell>
        <mxCell id="-eBhqyI-6Xnvktaqn6aU-134" value="συγκεκριμένης παραγγελίας" style="edgeLabel;html=1;align=center;verticalAlign=middle;resizable=0;points=[];fontFamily=comfortaa;" connectable="0" vertex="1" parent="-eBhqyI-6Xnvktaqn6aU-132">
          <mxGeometry x="0.4185" y="-2" relative="1" as="geometry">
            <mxPoint x="-21" y="5" as="offset" />
          </mxGeometry>
        </mxCell>
        <mxCell id="-eBhqyI-6Xnvktaqn6aU-135" value="" style="endArrow=block;endFill=1;html=1;edgeStyle=orthogonalEdgeStyle;align=left;verticalAlign=top;rounded=0;fontFamily=comfortaa;" edge="1" parent="1">
          <mxGeometry x="-1" relative="1" as="geometry">
            <mxPoint x="330" y="1170" as="sourcePoint" />
            <mxPoint x="490" y="1170" as="targetPoint" />
          </mxGeometry>
        </mxCell>
        <mxCell id="-eBhqyI-6Xnvktaqn6aU-136" value="Αίτημα για φόρτωση της" style="edgeLabel;html=1;align=center;verticalAlign=middle;resizable=0;points=[];fontFamily=comfortaa;" connectable="0" vertex="1" parent="-eBhqyI-6Xnvktaqn6aU-135">
          <mxGeometry x="0.3" y="-1" relative="1" as="geometry">
            <mxPoint x="-27" y="-9" as="offset" />
          </mxGeometry>
        </mxCell>
        <mxCell id="-eBhqyI-6Xnvktaqn6aU-137" value="παραγγελίας" style="edgeLabel;html=1;align=center;verticalAlign=middle;resizable=0;points=[];fontFamily=comfortaa;" connectable="0" vertex="1" parent="-eBhqyI-6Xnvktaqn6aU-135">
          <mxGeometry x="0.231" y="-3" relative="1" as="geometry">
            <mxPoint x="-19" y="5" as="offset" />
          </mxGeometry>
        </mxCell>
        <mxCell id="-eBhqyI-6Xnvktaqn6aU-138" value="" style="endArrow=block;endFill=1;html=1;edgeStyle=orthogonalEdgeStyle;align=left;verticalAlign=top;rounded=0;fontFamily=comfortaa;" edge="1" parent="1">
          <mxGeometry x="-1" relative="1" as="geometry">
            <mxPoint x="124.99" y="1491.7900000000002" as="sourcePoint" />
            <mxPoint x="284.99000000000007" y="1491.7900000000002" as="targetPoint" />
          </mxGeometry>
        </mxCell>
        <mxCell id="-eBhqyI-6Xnvktaqn6aU-139" value="κλικ επιβεβαιωσης" style="edgeLabel;html=1;align=center;verticalAlign=middle;resizable=0;points=[];fontFamily=comfortaa;labelBackgroundColor=none;" connectable="0" vertex="1" parent="-eBhqyI-6Xnvktaqn6aU-138">
          <mxGeometry x="0.2625" y="2" relative="1" as="geometry">
            <mxPoint x="-20" y="-6" as="offset" />
          </mxGeometry>
        </mxCell>
        <mxCell id="-eBhqyI-6Xnvktaqn6aU-140" value="" style="endArrow=block;endFill=1;html=1;edgeStyle=orthogonalEdgeStyle;align=left;verticalAlign=top;rounded=0;fontFamily=comfortaa;" edge="1" parent="1">
          <mxGeometry x="-1" relative="1" as="geometry">
            <mxPoint x="274.99000000000007" y="1542.7900000000002" as="sourcePoint" />
            <mxPoint x="134.98999999999998" y="1542.7900000000002" as="targetPoint" />
          </mxGeometry>
        </mxCell>
        <mxCell id="-eBhqyI-6Xnvktaqn6aU-141" value="μήνυμα επιβεβαίωσης" style="edgeLabel;html=1;align=center;verticalAlign=middle;resizable=0;points=[];fontFamily=comfortaa;labelBackgroundColor=none;" connectable="0" vertex="1" parent="-eBhqyI-6Xnvktaqn6aU-140">
          <mxGeometry x="0.2625" y="2" relative="1" as="geometry">
            <mxPoint x="12" y="-13" as="offset" />
          </mxGeometry>
        </mxCell>
        <mxCell id="-eBhqyI-6Xnvktaqn6aU-142" value="ακύρωσης" style="edgeLabel;html=1;align=center;verticalAlign=middle;resizable=0;points=[];fontFamily=comfortaa;labelBackgroundColor=none;" connectable="0" vertex="1" parent="-eBhqyI-6Xnvktaqn6aU-140">
          <mxGeometry x="0.2625" y="2" relative="1" as="geometry">
            <mxPoint x="12" y="9" as="offset" />
          </mxGeometry>
        </mxCell>
        <mxCell id="-eBhqyI-6Xnvktaqn6aU-143" value="" style="endArrow=none;endFill=0;html=1;edgeStyle=orthogonalEdgeStyle;align=left;verticalAlign=top;rounded=0;startArrow=classic;startFill=1;fontFamily=comfortaa;" edge="1" parent="1">
          <mxGeometry x="-1" relative="1" as="geometry">
            <mxPoint x="126.64999999999999" y="1442.63" as="sourcePoint" />
            <mxPoint x="286.6500000000001" y="1442.63" as="targetPoint" />
          </mxGeometry>
        </mxCell>
        <mxCell id="-eBhqyI-6Xnvktaqn6aU-144" value="&lt;font&gt;της παραγγελίας στον owner&lt;/font&gt;" style="edgeLabel;html=1;align=center;verticalAlign=middle;resizable=0;points=[];fontFamily=comfortaa;labelBackgroundColor=none;" connectable="0" vertex="1" parent="1">
          <mxGeometry x="206.64999999999998" y="1453.63" as="geometry" />
        </mxCell>
        <mxCell id="-eBhqyI-6Xnvktaqn6aU-145" value="&lt;font&gt;Εμφάνιση μη επαρκούς αποθέματος&lt;/font&gt;" style="edgeLabel;html=1;align=center;verticalAlign=middle;resizable=0;points=[];fontFamily=comfortaa;labelBackgroundColor=none;" connectable="0" vertex="1" parent="1">
          <mxGeometry x="208.30517241379323" y="1433.63" as="geometry" />
        </mxCell>
        <mxCell id="-eBhqyI-6Xnvktaqn6aU-146" value="" style="html=1;points=[[0,0,0,0,5],[0,1,0,0,-5],[1,0,0,0,5],[1,1,0,0,-5]];perimeter=orthogonalPerimeter;outlineConnect=0;targetShapes=umlLifeline;portConstraint=eastwest;newEdgeStyle={&quot;curved&quot;:0,&quot;rounded&quot;:0};fillColor=#f8cecc;gradientColor=#ea6b66;strokeColor=#b85450;" vertex="1" parent="1">
          <mxGeometry x="520" y="840" width="10" height="140" as="geometry" />
        </mxCell>
        <mxCell id="-eBhqyI-6Xnvktaqn6aU-147" value="" style="html=1;points=[[0,0,0,0,5],[0,1,0,0,-5],[1,0,0,0,5],[1,1,0,0,-5]];perimeter=orthogonalPerimeter;outlineConnect=0;targetShapes=umlLifeline;portConstraint=eastwest;newEdgeStyle={&quot;curved&quot;:0,&quot;rounded&quot;:0};fillColor=#f8cecc;gradientColor=#ea6b66;strokeColor=#b85450;" vertex="1" parent="1">
          <mxGeometry x="520" y="1130" width="10" height="140" as="geometry" />
        </mxCell>
      </root>
    </mxGraphModel>
  </diagram>
</mxfile>
